<svg width="19" height="19" viewBox="0 0 19 19" fill="none" xmlns="http://www.w3.org/2000/svg">
<path d="M10.882 1H8.11803C7.73926 1 7.393 1.214 7.22361 1.55279L6.27639 3.44721C6.107 3.786 5.76074 4 5.38197 4H3.58032C3.22147 4 2.89012 4.19229 2.71208 4.50386L1.33721 6.90989C1.13368 7.26606 1.16832 7.7104 1.42458 8.03073L2.50024 9.37531C2.79242 9.74052 2.79242 10.2595 2.50024 10.6247L1.42458 11.9693C1.16832 12.2896 1.13368 12.7339 1.33721 13.0901L2.65442 15.3952C2.8621 15.7587 3.27417 15.9543 3.68706 15.8855L5.27147 15.6214C5.70451 15.5492 6.13397 15.7679 6.3303 16.1606L7.22361 17.9472C7.393 18.286 7.73926 18.5 8.11803 18.5H10.882C11.2607 18.5 11.607 18.286 11.7764 17.9472L12.6697 16.1606C12.866 15.7679 13.2955 15.5492 13.7285 15.6214L15.3129 15.8855C15.7258 15.9543 16.1379 15.7587 16.3456 15.3952L17.6628 13.0901C17.8663 12.7339 17.8317 12.2896 17.5754 11.9693L16.4568 10.571C16.1847 10.2309 16.164 9.75393 16.4056 9.39159L17.6302 7.5547C17.8541 7.2188 17.8541 6.7812 17.6302 6.4453L16.2969 4.4453C16.1114 4.1671 15.7992 4 15.4648 4H13.618C13.2393 4 12.893 3.786 12.7236 3.44721L11.7764 1.55279C11.607 1.214 11.2607 1 10.882 1Z" stroke="white" stroke-linecap="round"/>
<circle cx="9.5" cy="9.5" r="3" stroke="white"/>
</svg>
