<svg width="350" height="214" viewBox="0 0 350 214" fill="none" xmlns="http://www.w3.org/2000/svg">
<path d="M132 92.5767V13C132 8.58172 135.582 5 140 5H210C214.418 5 218 8.58172 218 13V92.3059C218 98.6437 210.981 102.465 205.658 99.0253L180.013 82.4544C177.409 80.7715 174.066 80.7452 171.436 82.387L144.236 99.3633C138.907 102.689 132 98.8579 132 92.5767Z" stroke="#D4DADC" stroke-width="9" stroke-linecap="round"/>
<path d="M60.1021 167H56.4621L48.2201 154.546V167H44.5801V148.826H48.2201L56.4621 161.306V148.826H60.1021V167ZM70.0953 167.234C68.7086 167.234 67.4606 166.931 66.3513 166.324C65.2419 165.7 64.3666 164.825 63.7253 163.698C63.1013 162.571 62.7893 161.271 62.7893 159.798C62.7893 158.325 63.1099 157.025 63.7513 155.898C64.4099 154.771 65.3026 153.905 66.4293 153.298C67.5559 152.674 68.8126 152.362 70.1993 152.362C71.5859 152.362 72.8426 152.674 73.9693 153.298C75.0959 153.905 75.9799 154.771 76.6213 155.898C77.2799 157.025 77.6093 158.325 77.6093 159.798C77.6093 161.271 77.2713 162.571 76.5953 163.698C75.9366 164.825 75.0353 165.7 73.8913 166.324C72.7646 166.931 71.4993 167.234 70.0953 167.234ZM70.0953 164.062C70.7539 164.062 71.3693 163.906 71.9413 163.594C72.5306 163.265 72.9986 162.779 73.3453 162.138C73.6919 161.497 73.8653 160.717 73.8653 159.798C73.8653 158.429 73.5013 157.38 72.7733 156.652C72.0626 155.907 71.1873 155.534 70.1473 155.534C69.1073 155.534 68.2319 155.907 67.5213 156.652C66.8279 157.38 66.4813 158.429 66.4813 159.798C66.4813 161.167 66.8193 162.225 67.4953 162.97C68.1886 163.698 69.0553 164.062 70.0953 164.062ZM91.9867 167.234C90.808 167.234 89.7507 167.026 88.8147 166.61C87.8787 166.177 87.1333 165.596 86.5787 164.868C86.0413 164.14 85.7467 163.334 85.6947 162.45H89.3607C89.43 163.005 89.6987 163.464 90.1667 163.828C90.652 164.192 91.25 164.374 91.9607 164.374C92.654 164.374 93.1913 164.235 93.5727 163.958C93.9713 163.681 94.1707 163.325 94.1707 162.892C94.1707 162.424 93.928 162.077 93.4427 161.852C92.9747 161.609 92.2207 161.349 91.1807 161.072C90.106 160.812 89.222 160.543 88.5287 160.266C87.8527 159.989 87.2633 159.564 86.7607 158.992C86.2753 158.42 86.0327 157.649 86.0327 156.678C86.0327 155.881 86.258 155.153 86.7087 154.494C87.1767 153.835 87.8353 153.315 88.6847 152.934C89.5513 152.553 90.5653 152.362 91.7267 152.362C93.4427 152.362 94.812 152.795 95.8347 153.662C96.8573 154.511 97.4207 155.664 97.5247 157.12H94.0407C93.9887 156.548 93.746 156.097 93.3127 155.768C92.8967 155.421 92.3333 155.248 91.6227 155.248C90.964 155.248 90.4527 155.369 90.0887 155.612C89.742 155.855 89.5687 156.193 89.5687 156.626C89.5687 157.111 89.8113 157.484 90.2967 157.744C90.782 157.987 91.536 158.238 92.5587 158.498C93.5987 158.758 94.4567 159.027 95.1327 159.304C95.8087 159.581 96.3893 160.015 96.8747 160.604C97.3773 161.176 97.6373 161.939 97.6547 162.892C97.6547 163.724 97.4207 164.469 96.9527 165.128C96.502 165.787 95.8433 166.307 94.9767 166.688C94.1273 167.052 93.1307 167.234 91.9867 167.234ZM99.7066 159.746C99.7066 158.29 99.9926 156.999 100.565 155.872C101.154 154.745 101.943 153.879 102.931 153.272C103.936 152.665 105.054 152.362 106.285 152.362C107.359 152.362 108.295 152.579 109.093 153.012C109.907 153.445 110.557 153.991 111.043 154.65V152.596H114.709V167H111.043V164.894C110.575 165.57 109.925 166.133 109.093 166.584C108.278 167.017 107.333 167.234 106.259 167.234C105.045 167.234 103.936 166.922 102.931 166.298C101.943 165.674 101.154 164.799 100.565 163.672C99.9926 162.528 99.7066 161.219 99.7066 159.746ZM111.043 159.798C111.043 158.914 110.869 158.16 110.523 157.536C110.176 156.895 109.708 156.409 109.119 156.08C108.529 155.733 107.897 155.56 107.221 155.56C106.545 155.56 105.921 155.725 105.349 156.054C104.777 156.383 104.309 156.869 103.945 157.51C103.598 158.134 103.425 158.879 103.425 159.746C103.425 160.613 103.598 161.375 103.945 162.034C104.309 162.675 104.777 163.169 105.349 163.516C105.938 163.863 106.562 164.036 107.221 164.036C107.897 164.036 108.529 163.871 109.119 163.542C109.708 163.195 110.176 162.71 110.523 162.086C110.869 161.445 111.043 160.682 111.043 159.798ZM124.27 163.646L127.91 152.596H131.784L126.454 167H122.034L116.73 152.596H120.63L124.27 163.646ZM147.218 159.486C147.218 160.006 147.184 160.474 147.114 160.89H136.584C136.671 161.93 137.035 162.745 137.676 163.334C138.318 163.923 139.106 164.218 140.042 164.218C141.394 164.218 142.356 163.637 142.928 162.476H146.854C146.438 163.863 145.641 165.007 144.462 165.908C143.284 166.792 141.836 167.234 140.12 167.234C138.734 167.234 137.486 166.931 136.376 166.324C135.284 165.7 134.426 164.825 133.802 163.698C133.196 162.571 132.892 161.271 132.892 159.798C132.892 158.307 133.196 156.999 133.802 155.872C134.409 154.745 135.258 153.879 136.35 153.272C137.442 152.665 138.699 152.362 140.12 152.362C141.49 152.362 142.712 152.657 143.786 153.246C144.878 153.835 145.719 154.676 146.308 155.768C146.915 156.843 147.218 158.082 147.218 159.486ZM143.448 158.446C143.431 157.51 143.093 156.765 142.434 156.21C141.776 155.638 140.97 155.352 140.016 155.352C139.115 155.352 138.352 155.629 137.728 156.184C137.122 156.721 136.749 157.475 136.61 158.446H143.448ZM148.939 159.746C148.939 158.29 149.225 156.999 149.797 155.872C150.386 154.745 151.184 153.879 152.189 153.272C153.194 152.665 154.312 152.362 155.543 152.362C156.479 152.362 157.372 152.57 158.221 152.986C159.07 153.385 159.746 153.922 160.249 154.598V147.76H163.941V167H160.249V164.868C159.798 165.579 159.166 166.151 158.351 166.584C157.536 167.017 156.592 167.234 155.517 167.234C154.304 167.234 153.194 166.922 152.189 166.298C151.184 165.674 150.386 164.799 149.797 163.672C149.225 162.528 148.939 161.219 148.939 159.746ZM160.275 159.798C160.275 158.914 160.102 158.16 159.755 157.536C159.408 156.895 158.94 156.409 158.351 156.08C157.762 155.733 157.129 155.56 156.453 155.56C155.777 155.56 155.153 155.725 154.581 156.054C154.009 156.383 153.541 156.869 153.177 157.51C152.83 158.134 152.657 158.879 152.657 159.746C152.657 160.613 152.83 161.375 153.177 162.034C153.541 162.675 154.009 163.169 154.581 163.516C155.17 163.863 155.794 164.036 156.453 164.036C157.129 164.036 157.762 163.871 158.351 163.542C158.94 163.195 159.408 162.71 159.755 162.086C160.102 161.445 160.275 160.682 160.275 159.798ZM172.755 159.746C172.755 158.29 173.041 156.999 173.613 155.872C174.203 154.745 174.991 153.879 175.979 153.272C176.985 152.665 178.103 152.362 179.333 152.362C180.408 152.362 181.344 152.579 182.141 153.012C182.956 153.445 183.606 153.991 184.091 154.65V152.596H187.757V167H184.091V164.894C183.623 165.57 182.973 166.133 182.141 166.584C181.327 167.017 180.382 167.234 179.307 167.234C178.094 167.234 176.985 166.922 175.979 166.298C174.991 165.674 174.203 164.799 173.613 163.672C173.041 162.528 172.755 161.219 172.755 159.746ZM184.091 159.798C184.091 158.914 183.918 158.16 183.571 157.536C183.225 156.895 182.757 156.409 182.167 156.08C181.578 155.733 180.945 155.56 180.269 155.56C179.593 155.56 178.969 155.725 178.397 156.054C177.825 156.383 177.357 156.869 176.993 157.51C176.647 158.134 176.473 158.879 176.473 159.746C176.473 160.613 176.647 161.375 176.993 162.034C177.357 162.675 177.825 163.169 178.397 163.516C178.987 163.863 179.611 164.036 180.269 164.036C180.945 164.036 181.578 163.871 182.167 163.542C182.757 163.195 183.225 162.71 183.571 162.086C183.918 161.445 184.091 160.682 184.091 159.798ZM196.825 167.234C195.646 167.234 194.589 167.026 193.653 166.61C192.717 166.177 191.971 165.596 191.417 164.868C190.879 164.14 190.585 163.334 190.533 162.45H194.199C194.268 163.005 194.537 163.464 195.005 163.828C195.49 164.192 196.088 164.374 196.799 164.374C197.492 164.374 198.029 164.235 198.411 163.958C198.809 163.681 199.009 163.325 199.009 162.892C199.009 162.424 198.766 162.077 198.281 161.852C197.813 161.609 197.059 161.349 196.019 161.072C194.944 160.812 194.06 160.543 193.367 160.266C192.691 159.989 192.101 159.564 191.599 158.992C191.113 158.42 190.871 157.649 190.871 156.678C190.871 155.881 191.096 155.153 191.547 154.494C192.015 153.835 192.673 153.315 193.523 152.934C194.389 152.553 195.403 152.362 196.565 152.362C198.281 152.362 199.65 152.795 200.673 153.662C201.695 154.511 202.259 155.664 202.363 157.12H198.879C198.827 156.548 198.584 156.097 198.151 155.768C197.735 155.421 197.171 155.248 196.461 155.248C195.802 155.248 195.291 155.369 194.927 155.612C194.58 155.855 194.407 156.193 194.407 156.626C194.407 157.111 194.649 157.484 195.135 157.744C195.62 157.987 196.374 158.238 197.397 158.498C198.437 158.758 199.295 159.027 199.971 159.304C200.647 159.581 201.227 160.015 201.713 160.604C202.215 161.176 202.475 161.939 202.493 162.892C202.493 163.724 202.259 164.469 201.791 165.128C201.34 165.787 200.681 166.307 199.815 166.688C198.965 167.052 197.969 167.234 196.825 167.234ZM210.993 167.234C209.814 167.234 208.757 167.026 207.821 166.61C206.885 166.177 206.139 165.596 205.585 164.868C205.047 164.14 204.753 163.334 204.701 162.45H208.367C208.436 163.005 208.705 163.464 209.173 163.828C209.658 164.192 210.256 164.374 210.967 164.374C211.66 164.374 212.197 164.235 212.579 163.958C212.977 163.681 213.177 163.325 213.177 162.892C213.177 162.424 212.934 162.077 212.449 161.852C211.981 161.609 211.227 161.349 210.187 161.072C209.112 160.812 208.228 160.543 207.535 160.266C206.859 159.989 206.269 159.564 205.767 158.992C205.281 158.42 205.039 157.649 205.039 156.678C205.039 155.881 205.264 155.153 205.715 154.494C206.183 153.835 206.841 153.315 207.691 152.934C208.557 152.553 209.571 152.362 210.733 152.362C212.449 152.362 213.818 152.795 214.841 153.662C215.863 154.511 216.427 155.664 216.531 157.12H213.047C212.995 156.548 212.752 156.097 212.319 155.768C211.903 155.421 211.339 155.248 210.629 155.248C209.97 155.248 209.459 155.369 209.095 155.612C208.748 155.855 208.575 156.193 208.575 156.626C208.575 157.111 208.817 157.484 209.303 157.744C209.788 157.987 210.542 158.238 211.565 158.498C212.605 158.758 213.463 159.027 214.139 159.304C214.815 159.581 215.395 160.015 215.881 160.604C216.383 161.176 216.643 161.939 216.661 162.892C216.661 163.724 216.427 164.469 215.959 165.128C215.508 165.787 214.849 166.307 213.983 166.688C213.133 167.052 212.137 167.234 210.993 167.234ZM233.038 159.486C233.038 160.006 233.004 160.474 232.934 160.89H222.404C222.491 161.93 222.855 162.745 223.496 163.334C224.138 163.923 224.926 164.218 225.862 164.218C227.214 164.218 228.176 163.637 228.748 162.476H232.674C232.258 163.863 231.461 165.007 230.282 165.908C229.104 166.792 227.656 167.234 225.94 167.234C224.554 167.234 223.306 166.931 222.196 166.324C221.104 165.7 220.246 164.825 219.622 163.698C219.016 162.571 218.712 161.271 218.712 159.798C218.712 158.307 219.016 156.999 219.622 155.872C220.229 154.745 221.078 153.879 222.17 153.272C223.262 152.665 224.519 152.362 225.94 152.362C227.31 152.362 228.532 152.657 229.606 153.246C230.698 153.835 231.539 154.676 232.128 155.768C232.735 156.843 233.038 158.082 233.038 159.486ZM229.268 158.446C229.251 157.51 228.913 156.765 228.254 156.21C227.596 155.638 226.79 155.352 225.836 155.352C224.935 155.352 224.172 155.629 223.548 156.184C222.942 156.721 222.569 157.475 222.43 158.446H229.268ZM239.933 155.586V162.554C239.933 163.039 240.046 163.395 240.271 163.62C240.514 163.828 240.913 163.932 241.467 163.932H243.157V167H240.869C237.801 167 236.267 165.509 236.267 162.528V155.586H234.551V152.596H236.267V149.034H239.933V152.596H243.157V155.586H239.933ZM251.287 167.234C250.109 167.234 249.051 167.026 248.115 166.61C247.179 166.177 246.434 165.596 245.879 164.868C245.342 164.14 245.047 163.334 244.995 162.45H248.661C248.731 163.005 248.999 163.464 249.467 163.828C249.953 164.192 250.551 164.374 251.261 164.374C251.955 164.374 252.492 164.235 252.873 163.958C253.272 163.681 253.471 163.325 253.471 162.892C253.471 162.424 253.229 162.077 252.743 161.852C252.275 161.609 251.521 161.349 250.481 161.072C249.407 160.812 248.523 160.543 247.829 160.266C247.153 159.989 246.564 159.564 246.061 158.992C245.576 158.42 245.333 157.649 245.333 156.678C245.333 155.881 245.559 155.153 246.009 154.494C246.477 153.835 247.136 153.315 247.985 152.934C248.852 152.553 249.866 152.362 251.027 152.362C252.743 152.362 254.113 152.795 255.135 153.662C256.158 154.511 256.721 155.664 256.825 157.12H253.341C253.289 156.548 253.047 156.097 252.613 155.768C252.197 155.421 251.634 155.248 250.923 155.248C250.265 155.248 249.753 155.369 249.389 155.612C249.043 155.855 248.869 156.193 248.869 156.626C248.869 157.111 249.112 157.484 249.597 157.744C250.083 157.987 250.837 158.238 251.859 158.498C252.899 158.758 253.757 159.027 254.433 159.304C255.109 159.581 255.69 160.015 256.175 160.604C256.678 161.176 256.938 161.939 256.955 162.892C256.955 163.724 256.721 164.469 256.253 165.128C255.803 165.787 255.144 166.307 254.277 166.688C253.428 167.052 252.431 167.234 251.287 167.234ZM279.919 152.596L271.001 173.812H267.127L270.247 166.636L264.475 152.596H268.557L272.275 162.658L276.045 152.596H279.919ZM295.271 159.486C295.271 160.006 295.236 160.474 295.167 160.89H284.637C284.724 161.93 285.088 162.745 285.729 163.334C286.37 163.923 287.159 164.218 288.095 164.218C289.447 164.218 290.409 163.637 290.981 162.476H294.907C294.491 163.863 293.694 165.007 292.515 165.908C291.336 166.792 289.889 167.234 288.173 167.234C286.786 167.234 285.538 166.931 284.429 166.324C283.337 165.7 282.479 164.825 281.855 163.698C281.248 162.571 280.945 161.271 280.945 159.798C280.945 158.307 281.248 156.999 281.855 155.872C282.462 154.745 283.311 153.879 284.403 153.272C285.495 152.665 286.752 152.362 288.173 152.362C289.542 152.362 290.764 152.657 291.839 153.246C292.931 153.835 293.772 154.676 294.361 155.768C294.968 156.843 295.271 158.082 295.271 159.486ZM291.501 158.446C291.484 157.51 291.146 156.765 290.487 156.21C289.828 155.638 289.022 155.352 288.069 155.352C287.168 155.352 286.405 155.629 285.781 156.184C285.174 156.721 284.802 157.475 284.663 158.446H291.501ZM302.166 155.586V162.554C302.166 163.039 302.278 163.395 302.504 163.62C302.746 163.828 303.145 163.932 303.7 163.932H305.39V167H303.102C300.034 167 298.5 165.509 298.5 162.528V155.586H296.784V152.596H298.5V149.034H302.166V152.596H305.39V155.586H302.166Z" fill="#AEB9C0"/>
<path d="M7.84744 204.52H2.98344L2.08744 207H0.551437L4.58344 195.912H6.26344L10.2794 207H8.74344L7.84744 204.52ZM7.43144 203.336L5.41544 197.704L3.39944 203.336H7.43144ZM11.4927 202.584C11.4927 201.688 11.674 200.904 12.0367 200.232C12.3994 199.549 12.8954 199.021 13.5247 198.648C14.1647 198.275 14.8794 198.088 15.6687 198.088C16.3514 198.088 16.986 198.248 17.5727 198.568C18.1594 198.877 18.6074 199.288 18.9167 199.8V195.16H20.3887V207H18.9167V205.352C18.6287 205.875 18.202 206.307 17.6367 206.648C17.0714 206.979 16.41 207.144 15.6527 207.144C14.874 207.144 14.1647 206.952 13.5247 206.568C12.8954 206.184 12.3994 205.645 12.0367 204.952C11.674 204.259 11.4927 203.469 11.4927 202.584ZM18.9167 202.6C18.9167 201.939 18.7834 201.363 18.5167 200.872C18.25 200.381 17.8874 200.008 17.4287 199.752C16.9807 199.485 16.4847 199.352 15.9407 199.352C15.3967 199.352 14.9007 199.48 14.4527 199.736C14.0047 199.992 13.6474 200.365 13.3807 200.856C13.114 201.347 12.9807 201.923 12.9807 202.584C12.9807 203.256 13.114 203.843 13.3807 204.344C13.6474 204.835 14.0047 205.213 14.4527 205.48C14.9007 205.736 15.3967 205.864 15.9407 205.864C16.4847 205.864 16.9807 205.736 17.4287 205.48C17.8874 205.213 18.25 204.835 18.5167 204.344C18.7834 203.843 18.9167 203.261 18.9167 202.6ZM22.3052 202.584C22.3052 201.688 22.4865 200.904 22.8492 200.232C23.2119 199.549 23.7079 199.021 24.3372 198.648C24.9772 198.275 25.6919 198.088 26.4812 198.088C27.1639 198.088 27.7985 198.248 28.3852 198.568C28.9719 198.877 29.4199 199.288 29.7292 199.8V195.16H31.2012V207H29.7292V205.352C29.4412 205.875 29.0145 206.307 28.4492 206.648C27.8839 206.979 27.2225 207.144 26.4652 207.144C25.6865 207.144 24.9772 206.952 24.3372 206.568C23.7079 206.184 23.2119 205.645 22.8492 204.952C22.4865 204.259 22.3052 203.469 22.3052 202.584ZM29.7292 202.6C29.7292 201.939 29.5959 201.363 29.3292 200.872C29.0625 200.381 28.6999 200.008 28.2412 199.752C27.7932 199.485 27.2972 199.352 26.7532 199.352C26.2092 199.352 25.7132 199.48 25.2652 199.736C24.8172 199.992 24.4599 200.365 24.1932 200.856C23.9265 201.347 23.7932 201.923 23.7932 202.584C23.7932 203.256 23.9265 203.843 24.1932 204.344C24.4599 204.835 24.8172 205.213 25.2652 205.48C25.7132 205.736 26.2092 205.864 26.7532 205.864C27.2972 205.864 27.7932 205.736 28.2412 205.48C28.6999 205.213 29.0625 204.835 29.3292 204.344C29.5959 203.843 29.7292 203.261 29.7292 202.6ZM37.3833 202.584C37.3833 201.688 37.5646 200.904 37.9273 200.232C38.29 199.549 38.786 199.021 39.4153 198.648C40.0553 198.275 40.7646 198.088 41.5433 198.088C42.3113 198.088 42.978 198.253 43.5433 198.584C44.1086 198.915 44.53 199.331 44.8073 199.832V198.232H46.2793V207H44.8073V205.368C44.5193 205.88 44.0873 206.307 43.5113 206.648C42.946 206.979 42.2846 207.144 41.5273 207.144C40.7486 207.144 40.0446 206.952 39.4153 206.568C38.786 206.184 38.29 205.645 37.9273 204.952C37.5646 204.259 37.3833 203.469 37.3833 202.584ZM44.8073 202.6C44.8073 201.939 44.674 201.363 44.4073 200.872C44.1406 200.381 43.778 200.008 43.3193 199.752C42.8713 199.485 42.3753 199.352 41.8313 199.352C41.2873 199.352 40.7913 199.48 40.3433 199.736C39.8953 199.992 39.538 200.365 39.2713 200.856C39.0046 201.347 38.8713 201.923 38.8713 202.584C38.8713 203.256 39.0046 203.843 39.2713 204.344C39.538 204.835 39.8953 205.213 40.3433 205.48C40.7913 205.736 41.2873 205.864 41.8313 205.864C42.3753 205.864 42.8713 205.736 43.3193 205.48C43.778 205.213 44.1406 204.835 44.4073 204.344C44.674 203.843 44.8073 203.261 44.8073 202.6ZM51.8438 207.144C51.1718 207.144 50.5691 207.032 50.0358 206.808C49.5025 206.573 49.0811 206.253 48.7718 205.848C48.4625 205.432 48.2918 204.957 48.2598 204.424H49.7638C49.8065 204.861 50.0091 205.219 50.3718 205.496C50.7451 205.773 51.2305 205.912 51.8278 205.912C52.3825 205.912 52.8198 205.789 53.1398 205.544C53.4598 205.299 53.6198 204.989 53.6198 204.616C53.6198 204.232 53.4491 203.949 53.1078 203.768C52.7665 203.576 52.2385 203.389 51.5238 203.208C50.8731 203.037 50.3398 202.867 49.9238 202.696C49.5185 202.515 49.1665 202.253 48.8678 201.912C48.5798 201.56 48.4358 201.101 48.4358 200.536C48.4358 200.088 48.5691 199.677 48.8358 199.304C49.1025 198.931 49.4811 198.637 49.9718 198.424C50.4625 198.2 51.0225 198.088 51.6518 198.088C52.6225 198.088 53.4065 198.333 54.0038 198.824C54.6011 199.315 54.9211 199.987 54.9638 200.84H53.5078C53.4758 200.381 53.2891 200.013 52.9478 199.736C52.6171 199.459 52.1691 199.32 51.6038 199.32C51.0811 199.32 50.6651 199.432 50.3558 199.656C50.0465 199.88 49.8918 200.173 49.8918 200.536C49.8918 200.824 49.9825 201.064 50.1638 201.256C50.3558 201.437 50.5905 201.587 50.8678 201.704C51.1558 201.811 51.5505 201.933 52.0518 202.072C52.6811 202.243 53.1931 202.413 53.5878 202.584C53.9825 202.744 54.3185 202.989 54.5958 203.32C54.8838 203.651 55.0331 204.083 55.0438 204.616C55.0438 205.096 54.9105 205.528 54.6438 205.912C54.3771 206.296 53.9985 206.6 53.5078 206.824C53.0278 207.037 52.4731 207.144 51.8438 207.144ZM60.2032 207.144C59.5312 207.144 58.9285 207.032 58.3952 206.808C57.8619 206.573 57.4405 206.253 57.1312 205.848C56.8219 205.432 56.6512 204.957 56.6192 204.424H58.1232C58.1659 204.861 58.3685 205.219 58.7312 205.496C59.1045 205.773 59.5899 205.912 60.1872 205.912C60.7419 205.912 61.1792 205.789 61.4992 205.544C61.8192 205.299 61.9792 204.989 61.9792 204.616C61.9792 204.232 61.8085 203.949 61.4672 203.768C61.1259 203.576 60.5979 203.389 59.8832 203.208C59.2325 203.037 58.6992 202.867 58.2832 202.696C57.8779 202.515 57.5259 202.253 57.2272 201.912C56.9392 201.56 56.7952 201.101 56.7952 200.536C56.7952 200.088 56.9285 199.677 57.1952 199.304C57.4619 198.931 57.8405 198.637 58.3312 198.424C58.8219 198.2 59.3819 198.088 60.0112 198.088C60.9819 198.088 61.7659 198.333 62.3632 198.824C62.9605 199.315 63.2805 199.987 63.3232 200.84H61.8672C61.8352 200.381 61.6485 200.013 61.3072 199.736C60.9765 199.459 60.5285 199.32 59.9632 199.32C59.4405 199.32 59.0245 199.432 58.7152 199.656C58.4059 199.88 58.2512 200.173 58.2512 200.536C58.2512 200.824 58.3419 201.064 58.5232 201.256C58.7152 201.437 58.9499 201.587 59.2272 201.704C59.5152 201.811 59.9099 201.933 60.4112 202.072C61.0405 202.243 61.5525 202.413 61.9472 202.584C62.3419 202.744 62.6779 202.989 62.9552 203.32C63.2432 203.651 63.3925 204.083 63.4032 204.616C63.4032 205.096 63.2699 205.528 63.0032 205.912C62.7365 206.296 62.3579 206.6 61.8672 206.824C61.3872 207.037 60.8325 207.144 60.2032 207.144ZM73.4586 202.28C73.4586 202.557 73.4426 202.851 73.4106 203.16H66.4026C66.4559 204.024 66.7492 204.701 67.2826 205.192C67.8266 205.672 68.4826 205.912 69.2506 205.912C69.8799 205.912 70.4026 205.768 70.8186 205.48C71.2452 205.181 71.5439 204.787 71.7146 204.296H73.2826C73.0479 205.139 72.5786 205.827 71.8746 206.36C71.1706 206.883 70.2959 207.144 69.2506 207.144C68.4186 207.144 67.6719 206.957 67.0106 206.584C66.3599 206.211 65.8479 205.683 65.4746 205C65.1012 204.307 64.9146 203.507 64.9146 202.6C64.9146 201.693 65.0959 200.899 65.4586 200.216C65.8212 199.533 66.3279 199.011 66.9786 198.648C67.6399 198.275 68.3972 198.088 69.2506 198.088C70.0826 198.088 70.8186 198.269 71.4586 198.632C72.0986 198.995 72.5892 199.496 72.9306 200.136C73.2826 200.765 73.4586 201.48 73.4586 202.28ZM71.9546 201.976C71.9546 201.421 71.8319 200.947 71.5866 200.552C71.3412 200.147 71.0052 199.843 70.5786 199.64C70.1626 199.427 69.6986 199.32 69.1866 199.32C68.4506 199.32 67.8212 199.555 67.2986 200.024C66.7866 200.493 66.4932 201.144 66.4186 201.976H71.9546ZM77.1564 199.432V204.6C77.1564 205.027 77.2471 205.331 77.4284 205.512C77.6098 205.683 77.9244 205.768 78.3724 205.768H79.4444V207H78.1324C77.3218 207 76.7138 206.813 76.3084 206.44C75.9031 206.067 75.7004 205.453 75.7004 204.6V199.432H74.5644V198.232H75.7004V196.024H77.1564V198.232H79.4444V199.432H77.1564ZM84.3126 207.144C83.6406 207.144 83.0379 207.032 82.5046 206.808C81.9712 206.573 81.5499 206.253 81.2406 205.848C80.9312 205.432 80.7606 204.957 80.7286 204.424H82.2326C82.2752 204.861 82.4779 205.219 82.8406 205.496C83.2139 205.773 83.6992 205.912 84.2966 205.912C84.8512 205.912 85.2886 205.789 85.6086 205.544C85.9286 205.299 86.0886 204.989 86.0886 204.616C86.0886 204.232 85.9179 203.949 85.5766 203.768C85.2352 203.576 84.7072 203.389 83.9926 203.208C83.3419 203.037 82.8086 202.867 82.3926 202.696C81.9872 202.515 81.6352 202.253 81.3366 201.912C81.0486 201.56 80.9046 201.101 80.9046 200.536C80.9046 200.088 81.0379 199.677 81.3046 199.304C81.5712 198.931 81.9499 198.637 82.4406 198.424C82.9312 198.2 83.4912 198.088 84.1206 198.088C85.0912 198.088 85.8752 198.333 86.4726 198.824C87.0699 199.315 87.3899 199.987 87.4326 200.84H85.9766C85.9446 200.381 85.7579 200.013 85.4166 199.736C85.0859 199.459 84.6379 199.32 84.0726 199.32C83.5499 199.32 83.1339 199.432 82.8246 199.656C82.5152 199.88 82.3606 200.173 82.3606 200.536C82.3606 200.824 82.4512 201.064 82.6326 201.256C82.8246 201.437 83.0592 201.587 83.3366 201.704C83.6246 201.811 84.0192 201.933 84.5206 202.072C85.1499 202.243 85.6619 202.413 86.0566 202.584C86.4512 202.744 86.7872 202.989 87.0646 203.32C87.3526 203.651 87.5019 204.083 87.5126 204.616C87.5126 205.096 87.3792 205.528 87.1126 205.912C86.8459 206.296 86.4672 206.6 85.9766 206.824C85.4966 207.037 84.9419 207.144 84.3126 207.144ZM95.6096 199.432V204.6C95.6096 205.027 95.7002 205.331 95.8816 205.512C96.0629 205.683 96.3776 205.768 96.8256 205.768H97.8976V207H96.5856C95.7749 207 95.1669 206.813 94.7616 206.44C94.3562 206.067 94.1536 205.453 94.1536 204.6V199.432H93.0176V198.232H94.1536V196.024H95.6096V198.232H97.8976V199.432H95.6096ZM104.014 198.072C104.675 198.072 105.272 198.216 105.806 198.504C106.339 198.781 106.755 199.203 107.054 199.768C107.363 200.333 107.518 201.021 107.518 201.832V207H106.078V202.04C106.078 201.165 105.859 200.499 105.422 200.04C104.984 199.571 104.387 199.336 103.63 199.336C102.862 199.336 102.248 199.576 101.79 200.056C101.342 200.536 101.118 201.235 101.118 202.152V207H99.6617V195.16H101.118V199.48C101.406 199.032 101.8 198.685 102.302 198.44C102.814 198.195 103.384 198.072 104.014 198.072ZM109.352 202.584C109.352 201.688 109.533 200.904 109.896 200.232C110.259 199.549 110.755 199.021 111.384 198.648C112.024 198.275 112.733 198.088 113.512 198.088C114.28 198.088 114.947 198.253 115.512 198.584C116.077 198.915 116.499 199.331 116.776 199.832V198.232H118.248V207H116.776V205.368C116.488 205.88 116.056 206.307 115.48 206.648C114.915 206.979 114.253 207.144 113.496 207.144C112.717 207.144 112.013 206.952 111.384 206.568C110.755 206.184 110.259 205.645 109.896 204.952C109.533 204.259 109.352 203.469 109.352 202.584ZM116.776 202.6C116.776 201.939 116.643 201.363 116.376 200.872C116.109 200.381 115.747 200.008 115.288 199.752C114.84 199.485 114.344 199.352 113.8 199.352C113.256 199.352 112.76 199.48 112.312 199.736C111.864 199.992 111.507 200.365 111.24 200.856C110.973 201.347 110.84 201.923 110.84 202.584C110.84 203.256 110.973 203.843 111.24 204.344C111.507 204.835 111.864 205.213 112.312 205.48C112.76 205.736 113.256 205.864 113.8 205.864C114.344 205.864 114.84 205.736 115.288 205.48C115.747 205.213 116.109 204.835 116.376 204.344C116.643 203.843 116.776 203.261 116.776 202.6ZM122.485 199.432V204.6C122.485 205.027 122.575 205.331 122.757 205.512C122.938 205.683 123.253 205.768 123.701 205.768H124.773V207H123.461C122.65 207 122.042 206.813 121.637 206.44C121.231 206.067 121.029 205.453 121.029 204.6V199.432H119.893V198.232H121.029V196.024H122.485V198.232H124.773V199.432H122.485ZM138.354 198.232L133.074 211.128H131.57L133.298 206.904L129.762 198.232H131.378L134.13 205.336L136.85 198.232H138.354ZM143.642 207.144C142.821 207.144 142.074 206.957 141.402 206.584C140.741 206.211 140.218 205.683 139.834 205C139.461 204.307 139.274 203.507 139.274 202.6C139.274 201.704 139.466 200.915 139.85 200.232C140.245 199.539 140.778 199.011 141.45 198.648C142.122 198.275 142.874 198.088 143.706 198.088C144.538 198.088 145.29 198.275 145.962 198.648C146.634 199.011 147.162 199.533 147.546 200.216C147.941 200.899 148.138 201.693 148.138 202.6C148.138 203.507 147.935 204.307 147.53 205C147.135 205.683 146.597 206.211 145.914 206.584C145.231 206.957 144.474 207.144 143.642 207.144ZM143.642 205.864C144.165 205.864 144.655 205.741 145.114 205.496C145.573 205.251 145.941 204.883 146.218 204.392C146.506 203.901 146.65 203.304 146.65 202.6C146.65 201.896 146.511 201.299 146.234 200.808C145.957 200.317 145.594 199.955 145.146 199.72C144.698 199.475 144.213 199.352 143.69 199.352C143.157 199.352 142.666 199.475 142.218 199.72C141.781 199.955 141.429 200.317 141.162 200.808C140.895 201.299 140.762 201.896 140.762 202.6C140.762 203.315 140.89 203.917 141.146 204.408C141.413 204.899 141.765 205.267 142.202 205.512C142.639 205.747 143.119 205.864 143.642 205.864ZM157.828 198.232V207H156.372V205.704C156.095 206.152 155.706 206.504 155.204 206.76C154.714 207.005 154.17 207.128 153.572 207.128C152.89 207.128 152.276 206.989 151.732 206.712C151.188 206.424 150.756 205.997 150.436 205.432C150.127 204.867 149.972 204.179 149.972 203.368V198.232H151.412V203.176C151.412 204.04 151.631 204.707 152.068 205.176C152.506 205.635 153.103 205.864 153.86 205.864C154.639 205.864 155.252 205.624 155.7 205.144C156.148 204.664 156.372 203.965 156.372 203.048V198.232H157.828ZM176.232 198.232L173.496 207H171.992L169.88 200.04L167.768 207H166.264L163.512 198.232H165L167.016 205.592L169.192 198.232H170.68L172.808 205.608L174.792 198.232H176.232ZM177.133 202.584C177.133 201.688 177.315 200.904 177.677 200.232C178.04 199.549 178.536 199.021 179.165 198.648C179.805 198.275 180.515 198.088 181.293 198.088C182.061 198.088 182.728 198.253 183.293 198.584C183.859 198.915 184.28 199.331 184.557 199.832V198.232H186.029V207H184.557V205.368C184.269 205.88 183.837 206.307 183.261 206.648C182.696 206.979 182.035 207.144 181.277 207.144C180.499 207.144 179.795 206.952 179.165 206.568C178.536 206.184 178.04 205.645 177.677 204.952C177.315 204.259 177.133 203.469 177.133 202.584ZM184.557 202.6C184.557 201.939 184.424 201.363 184.157 200.872C183.891 200.381 183.528 200.008 183.069 199.752C182.621 199.485 182.125 199.352 181.581 199.352C181.037 199.352 180.541 199.48 180.093 199.736C179.645 199.992 179.288 200.365 179.021 200.856C178.755 201.347 178.621 201.923 178.621 202.584C178.621 203.256 178.755 203.843 179.021 204.344C179.288 204.835 179.645 205.213 180.093 205.48C180.541 205.736 181.037 205.864 181.581 205.864C182.125 205.864 182.621 205.736 183.069 205.48C183.528 205.213 183.891 204.835 184.157 204.344C184.424 203.843 184.557 203.261 184.557 202.6ZM192.762 198.072C193.828 198.072 194.692 198.397 195.354 199.048C196.015 199.688 196.346 200.616 196.346 201.832V207H194.906V202.04C194.906 201.165 194.687 200.499 194.25 200.04C193.812 199.571 193.215 199.336 192.458 199.336C191.69 199.336 191.076 199.576 190.618 200.056C190.17 200.536 189.946 201.235 189.946 202.152V207H188.49V198.232H189.946V199.48C190.234 199.032 190.623 198.685 191.114 198.44C191.615 198.195 192.164 198.072 192.762 198.072ZM200.5 199.432V204.6C200.5 205.027 200.591 205.331 200.772 205.512C200.954 205.683 201.268 205.768 201.716 205.768H202.788V207H201.476C200.666 207 200.058 206.813 199.652 206.44C199.247 206.067 199.044 205.453 199.044 204.6V199.432H197.908V198.232H199.044V196.024H200.5V198.232H202.788V199.432H200.5ZM210.594 199.432V204.6C210.594 205.027 210.685 205.331 210.866 205.512C211.047 205.683 211.362 205.768 211.81 205.768H212.882V207H211.57C210.759 207 210.151 206.813 209.746 206.44C209.341 206.067 209.138 205.453 209.138 204.6V199.432H208.002V198.232H209.138V196.024H210.594V198.232H212.882V199.432H210.594ZM218.47 207.144C217.649 207.144 216.902 206.957 216.23 206.584C215.569 206.211 215.046 205.683 214.662 205C214.289 204.307 214.102 203.507 214.102 202.6C214.102 201.704 214.294 200.915 214.678 200.232C215.073 199.539 215.606 199.011 216.278 198.648C216.95 198.275 217.702 198.088 218.534 198.088C219.366 198.088 220.118 198.275 220.79 198.648C221.462 199.011 221.99 199.533 222.374 200.216C222.769 200.899 222.966 201.693 222.966 202.6C222.966 203.507 222.763 204.307 222.358 205C221.963 205.683 221.425 206.211 220.742 206.584C220.059 206.957 219.302 207.144 218.47 207.144ZM218.47 205.864C218.993 205.864 219.483 205.741 219.942 205.496C220.401 205.251 220.769 204.883 221.046 204.392C221.334 203.901 221.478 203.304 221.478 202.6C221.478 201.896 221.339 201.299 221.062 200.808C220.785 200.317 220.422 199.955 219.974 199.72C219.526 199.475 219.041 199.352 218.518 199.352C217.985 199.352 217.494 199.475 217.046 199.72C216.609 199.955 216.257 200.317 215.99 200.808C215.723 201.299 215.59 201.896 215.59 202.6C215.59 203.315 215.718 203.917 215.974 204.408C216.241 204.899 216.593 205.267 217.03 205.512C217.467 205.747 217.947 205.864 218.47 205.864ZM234.042 207L230.602 203.128V207H229.146V195.16H230.602V202.12L233.978 198.232H236.01L231.882 202.6L236.026 207H234.042ZM245.38 202.28C245.38 202.557 245.364 202.851 245.332 203.16H238.324C238.378 204.024 238.671 204.701 239.204 205.192C239.748 205.672 240.404 205.912 241.172 205.912C241.802 205.912 242.324 205.768 242.74 205.48C243.167 205.181 243.466 204.787 243.636 204.296H245.204C244.97 205.139 244.5 205.827 243.796 206.36C243.092 206.883 242.218 207.144 241.172 207.144C240.34 207.144 239.594 206.957 238.932 206.584C238.282 206.211 237.77 205.683 237.396 205C237.023 204.307 236.836 203.507 236.836 202.6C236.836 201.693 237.018 200.899 237.38 200.216C237.743 199.533 238.25 199.011 238.9 198.648C239.562 198.275 240.319 198.088 241.172 198.088C242.004 198.088 242.74 198.269 243.38 198.632C244.02 198.995 244.511 199.496 244.852 200.136C245.204 200.765 245.38 201.48 245.38 202.28ZM243.876 201.976C243.876 201.421 243.754 200.947 243.508 200.552C243.263 200.147 242.927 199.843 242.5 199.64C242.084 199.427 241.62 199.32 241.108 199.32C240.372 199.32 239.743 199.555 239.22 200.024C238.708 200.493 238.415 201.144 238.34 201.976H243.876ZM255.302 202.28C255.302 202.557 255.286 202.851 255.254 203.16H248.246C248.3 204.024 248.593 204.701 249.126 205.192C249.67 205.672 250.326 205.912 251.094 205.912C251.724 205.912 252.246 205.768 252.662 205.48C253.089 205.181 253.388 204.787 253.558 204.296H255.126C254.892 205.139 254.422 205.827 253.718 206.36C253.014 206.883 252.14 207.144 251.094 207.144C250.262 207.144 249.516 206.957 248.854 206.584C248.204 206.211 247.692 205.683 247.318 205C246.945 204.307 246.758 203.507 246.758 202.6C246.758 201.693 246.94 200.899 247.302 200.216C247.665 199.533 248.172 199.011 248.822 198.648C249.484 198.275 250.241 198.088 251.094 198.088C251.926 198.088 252.662 198.269 253.302 198.632C253.942 198.995 254.433 199.496 254.774 200.136C255.126 200.765 255.302 201.48 255.302 202.28ZM253.798 201.976C253.798 201.421 253.676 200.947 253.43 200.552C253.185 200.147 252.849 199.843 252.422 199.64C252.006 199.427 251.542 199.32 251.03 199.32C250.294 199.32 249.665 199.555 249.142 200.024C248.63 200.493 248.337 201.144 248.262 201.976H253.798ZM258.68 199.848C258.968 199.347 259.395 198.931 259.96 198.6C260.536 198.259 261.203 198.088 261.96 198.088C262.739 198.088 263.443 198.275 264.072 198.648C264.712 199.021 265.214 199.549 265.576 200.232C265.939 200.904 266.12 201.688 266.12 202.584C266.12 203.469 265.939 204.259 265.576 204.952C265.214 205.645 264.712 206.184 264.072 206.568C263.443 206.952 262.739 207.144 261.96 207.144C261.214 207.144 260.552 206.979 259.976 206.648C259.411 206.307 258.979 205.885 258.68 205.384V211.16H257.224V198.232H258.68V199.848ZM264.632 202.584C264.632 201.923 264.499 201.347 264.232 200.856C263.966 200.365 263.603 199.992 263.144 199.736C262.696 199.48 262.2 199.352 261.656 199.352C261.123 199.352 260.627 199.485 260.168 199.752C259.72 200.008 259.358 200.387 259.08 200.888C258.814 201.379 258.68 201.949 258.68 202.6C258.68 203.261 258.814 203.843 259.08 204.344C259.358 204.835 259.72 205.213 260.168 205.48C260.627 205.736 261.123 205.864 261.656 205.864C262.2 205.864 262.696 205.736 263.144 205.48C263.603 205.213 263.966 204.835 264.232 204.344C264.499 203.843 264.632 203.256 264.632 202.584ZM271.758 202.584C271.758 201.688 271.94 200.904 272.302 200.232C272.665 199.549 273.161 199.021 273.79 198.648C274.43 198.275 275.14 198.088 275.918 198.088C276.686 198.088 277.353 198.253 277.918 198.584C278.484 198.915 278.905 199.331 279.182 199.832V198.232H280.654V207H279.182V205.368C278.894 205.88 278.462 206.307 277.886 206.648C277.321 206.979 276.66 207.144 275.902 207.144C275.124 207.144 274.42 206.952 273.79 206.568C273.161 206.184 272.665 205.645 272.302 204.952C271.94 204.259 271.758 203.469 271.758 202.584ZM279.182 202.6C279.182 201.939 279.049 201.363 278.782 200.872C278.516 200.381 278.153 200.008 277.694 199.752C277.246 199.485 276.75 199.352 276.206 199.352C275.662 199.352 275.166 199.48 274.718 199.736C274.27 199.992 273.913 200.365 273.646 200.856C273.38 201.347 273.246 201.923 273.246 202.584C273.246 203.256 273.38 203.843 273.646 204.344C273.913 204.835 274.27 205.213 274.718 205.48C275.166 205.736 275.662 205.864 276.206 205.864C276.75 205.864 277.246 205.736 277.694 205.48C278.153 205.213 278.516 204.835 278.782 204.344C279.049 203.843 279.182 203.261 279.182 202.6ZM287.387 198.072C288.453 198.072 289.317 198.397 289.979 199.048C290.64 199.688 290.971 200.616 290.971 201.832V207H289.531V202.04C289.531 201.165 289.312 200.499 288.875 200.04C288.437 199.571 287.84 199.336 287.083 199.336C286.315 199.336 285.701 199.576 285.243 200.056C284.795 200.536 284.571 201.235 284.571 202.152V207H283.115V198.232H284.571V199.48C284.859 199.032 285.248 198.685 285.739 198.44C286.24 198.195 286.789 198.072 287.387 198.072ZM305.615 202.28C305.615 202.557 305.599 202.851 305.567 203.16H298.559C298.612 204.024 298.905 204.701 299.439 205.192C299.983 205.672 300.639 205.912 301.407 205.912C302.036 205.912 302.559 205.768 302.975 205.48C303.401 205.181 303.7 204.787 303.871 204.296H305.439C305.204 205.139 304.735 205.827 304.031 206.36C303.327 206.883 302.452 207.144 301.407 207.144C300.575 207.144 299.828 206.957 299.167 206.584C298.516 206.211 298.004 205.683 297.631 205C297.257 204.307 297.071 203.507 297.071 202.6C297.071 201.693 297.252 200.899 297.615 200.216C297.977 199.533 298.484 199.011 299.135 198.648C299.796 198.275 300.553 198.088 301.407 198.088C302.239 198.088 302.975 198.269 303.615 198.632C304.255 198.995 304.745 199.496 305.087 200.136C305.439 200.765 305.615 201.48 305.615 202.28ZM304.111 201.976C304.111 201.421 303.988 200.947 303.743 200.552C303.497 200.147 303.161 199.843 302.735 199.64C302.319 199.427 301.855 199.32 301.343 199.32C300.607 199.32 299.977 199.555 299.455 200.024C298.943 200.493 298.649 201.144 298.575 201.976H304.111ZM315.089 198.232L309.809 211.128H308.305L310.033 206.904L306.497 198.232H308.113L310.865 205.336L313.585 198.232H315.089ZM324.552 202.28C324.552 202.557 324.536 202.851 324.504 203.16H317.496C317.55 204.024 317.843 204.701 318.376 205.192C318.92 205.672 319.576 205.912 320.344 205.912C320.974 205.912 321.496 205.768 321.912 205.48C322.339 205.181 322.638 204.787 322.808 204.296H324.376C324.142 205.139 323.672 205.827 322.968 206.36C322.264 206.883 321.39 207.144 320.344 207.144C319.512 207.144 318.766 206.957 318.104 206.584C317.454 206.211 316.942 205.683 316.568 205C316.195 204.307 316.008 203.507 316.008 202.6C316.008 201.693 316.19 200.899 316.552 200.216C316.915 199.533 317.422 199.011 318.072 198.648C318.734 198.275 319.491 198.088 320.344 198.088C321.176 198.088 321.912 198.269 322.552 198.632C323.192 198.995 323.683 199.496 324.024 200.136C324.376 200.765 324.552 201.48 324.552 202.28ZM323.048 201.976C323.048 201.421 322.926 200.947 322.68 200.552C322.435 200.147 322.099 199.843 321.672 199.64C321.256 199.427 320.792 199.32 320.28 199.32C319.544 199.32 318.915 199.555 318.392 200.024C317.88 200.493 317.587 201.144 317.512 201.976H323.048ZM334.564 207.144C333.742 207.144 332.996 206.957 332.324 206.584C331.662 206.211 331.14 205.683 330.756 205C330.382 204.307 330.196 203.507 330.196 202.6C330.196 201.704 330.388 200.915 330.772 200.232C331.166 199.539 331.7 199.011 332.372 198.648C333.044 198.275 333.796 198.088 334.628 198.088C335.46 198.088 336.212 198.275 336.884 198.648C337.556 199.011 338.084 199.533 338.468 200.216C338.862 200.899 339.06 201.693 339.06 202.6C339.06 203.507 338.857 204.307 338.452 205C338.057 205.683 337.518 206.211 336.836 206.584C336.153 206.957 335.396 207.144 334.564 207.144ZM334.564 205.864C335.086 205.864 335.577 205.741 336.036 205.496C336.494 205.251 336.862 204.883 337.14 204.392C337.428 203.901 337.572 203.304 337.572 202.6C337.572 201.896 337.433 201.299 337.156 200.808C336.878 200.317 336.516 199.955 336.068 199.72C335.62 199.475 335.134 199.352 334.612 199.352C334.078 199.352 333.588 199.475 333.14 199.72C332.702 199.955 332.35 200.317 332.084 200.808C331.817 201.299 331.684 201.896 331.684 202.6C331.684 203.315 331.812 203.917 332.068 204.408C332.334 204.899 332.686 205.267 333.124 205.512C333.561 205.747 334.041 205.864 334.564 205.864ZM345.246 198.072C346.313 198.072 347.177 198.397 347.838 199.048C348.5 199.688 348.83 200.616 348.83 201.832V207H347.39V202.04C347.39 201.165 347.172 200.499 346.734 200.04C346.297 199.571 345.7 199.336 344.942 199.336C344.174 199.336 343.561 199.576 343.102 200.056C342.654 200.536 342.43 201.235 342.43 202.152V207H340.974V198.232H342.43V199.48C342.718 199.032 343.108 198.685 343.598 198.44C344.1 198.195 344.649 198.072 345.246 198.072Z" fill="#AEB9C0"/>
</svg>
