<svg width="26" height="25" viewBox="0 0 26 25" fill="none" xmlns="http://www.w3.org/2000/svg">
<ellipse cx="13" cy="12.5" rx="13" ry="12.5" fill="#FFA000"/>
<path d="M13.0024 21C12.7091 21 12.4624 20.9067 12.2624 20.72C12.0758 20.52 11.9824 20.2733 11.9824 19.98V11.08C11.9824 10.7733 12.0758 10.5267 12.2624 10.34C12.4624 10.1533 12.7091 10.06 13.0024 10.06C13.3091 10.06 13.5558 10.1533 13.7424 10.34C13.9291 10.5267 14.0224 10.7733 14.0224 11.08V19.98C14.0224 20.2733 13.9291 20.52 13.7424 20.72C13.5558 20.9067 13.3091 21 13.0024 21ZM13.0024 8.28C12.6424 8.28 12.3291 8.15333 12.0624 7.9C11.8091 7.63333 11.6824 7.32 11.6824 6.96C11.6824 6.6 11.8091 6.29333 12.0624 6.04C12.3291 5.77333 12.6424 5.64 13.0024 5.64C13.3624 5.64 13.6691 5.77333 13.9224 6.04C14.1891 6.29333 14.3224 6.6 14.3224 6.96C14.3224 7.32 14.1891 7.63333 13.9224 7.9C13.6691 8.15333 13.3624 8.28 13.0024 8.28Z" fill="#FFF6E4"/>
</svg>
