<svg width="25" height="43" viewBox="0 0 25 43" fill="none" xmlns="http://www.w3.org/2000/svg">
<path d="M5.344 38.077C4.83067 38.077 4.36867 37.989 3.958 37.813C3.54733 37.6297 3.22467 37.373 2.99 37.043C2.75533 36.713 2.638 36.328 2.638 35.888H3.98C4.00933 36.218 4.13767 36.4893 4.365 36.702C4.59967 36.9147 4.926 37.021 5.344 37.021C5.77667 37.021 6.114 36.9183 6.356 36.713C6.598 36.5003 6.719 36.229 6.719 35.899C6.719 35.6423 6.642 35.4333 6.488 35.272C6.34133 35.1107 6.15433 34.986 5.927 34.898C5.707 34.81 5.399 34.7147 5.003 34.612C4.50433 34.48 4.09733 34.348 3.782 34.216C3.474 34.0767 3.21 33.864 2.99 33.578C2.77 33.292 2.66 32.9107 2.66 32.434C2.66 31.994 2.77 31.609 2.99 31.279C3.21 30.949 3.518 30.696 3.914 30.52C4.31 30.344 4.76833 30.256 5.289 30.256C6.02967 30.256 6.63467 30.443 7.104 30.817C7.58067 31.1837 7.84467 31.6897 7.896 32.335H6.51C6.488 32.0563 6.356 31.818 6.114 31.62C5.872 31.422 5.553 31.323 5.157 31.323C4.79767 31.323 4.50433 31.4147 4.277 31.598C4.04967 31.7813 3.936 32.0453 3.936 32.39C3.936 32.6247 4.00567 32.819 4.145 32.973C4.29167 33.1197 4.475 33.237 4.695 33.325C4.915 33.413 5.21567 33.5083 5.597 33.611C6.103 33.7503 6.51367 33.8897 6.829 34.029C7.15167 34.1683 7.423 34.3847 7.643 34.678C7.87033 34.964 7.984 35.349 7.984 35.833C7.984 36.2217 7.87767 36.5883 7.665 36.933C7.45967 37.2777 7.15533 37.5563 6.752 37.769C6.356 37.9743 5.88667 38.077 5.344 38.077ZM15.0187 34.821C15.0187 35.0483 15.004 35.2537 14.9747 35.437H10.3437C10.3803 35.921 10.56 36.3097 10.8827 36.603C11.2053 36.8963 11.6013 37.043 12.0707 37.043C12.7453 37.043 13.222 36.7607 13.5007 36.196H14.8537C14.6703 36.7533 14.3367 37.2117 13.8527 37.571C13.376 37.923 12.782 38.099 12.0707 38.099C11.4913 38.099 10.9707 37.9707 10.5087 37.714C10.054 37.45 9.69467 37.0833 9.43067 36.614C9.17401 36.1373 9.04567 35.5873 9.04567 34.964C9.04567 34.3407 9.17034 33.7943 9.41967 33.325C9.67634 32.8483 10.032 32.4817 10.4867 32.225C10.9487 31.9683 11.4767 31.84 12.0707 31.84C12.6427 31.84 13.1523 31.9647 13.5997 32.214C14.047 32.4633 14.3953 32.8153 14.6447 33.27C14.894 33.7173 15.0187 34.2343 15.0187 34.821ZM13.7097 34.425C13.7023 33.963 13.5373 33.5927 13.2147 33.314C12.892 33.0353 12.4923 32.896 12.0157 32.896C11.583 32.896 11.2127 33.0353 10.9047 33.314C10.5967 33.5853 10.4133 33.9557 10.3547 34.425H13.7097ZM17.5067 29.86V38H16.2527V29.86H17.5067ZM20.4071 29.86V38H19.1531V29.86H20.4071Z" fill="#FF0022"/>
<circle cx="12.5" cy="12.5" r="12.5" fill="#FF0022"/>
<path d="M7.69238 12.5L17.3078 12.5" stroke="white" stroke-width="2" stroke-linecap="round"/>
<path d="M12.5 17.3071V7.69174" stroke="white" stroke-width="2" stroke-linecap="round"/>
</svg>
