<svg width="430" height="932" viewBox="0 0 430 932" fill="none" xmlns="http://www.w3.org/2000/svg">
<rect width="430" height="932" fill="#1D3566"/>
<path d="M189.017 429.496C186.877 429.807 186.446 429.902 186.191 430.159C185.908 430.457 185.894 430.579 185.854 433.26C185.787 437.593 185.679 437.511 190.323 436.956C191.589 436.794 192.814 436.577 193.042 436.469C193.271 436.347 193.594 436.022 193.756 435.738C194.012 435.264 194.039 435.034 194.039 432.705C194.039 428.724 194.092 428.764 189.017 429.496Z" fill="white"/>
<path d="M176.592 430.714C173.577 431.107 173.146 431.242 172.904 431.892C172.823 432.109 172.769 437.376 172.769 445.432C172.769 459.555 172.756 459.338 173.415 459.69C173.59 459.785 174.815 459.839 176.767 459.839C179.567 459.839 179.877 459.812 180.267 459.568C180.55 459.392 180.739 459.149 180.833 458.797C181.048 458.025 181.021 432.041 180.806 431.405C180.658 430.958 179.904 430.308 179.581 430.335C179.5 430.349 178.154 430.511 176.592 430.714Z" fill="white"/>
<path d="M189.394 439.515C188.062 439.718 186.85 439.949 186.689 440.03C186.002 440.423 186.029 439.962 185.962 450.483C185.894 459.744 185.881 460.34 185.639 460.787C185.087 461.83 184.319 462.344 182.946 462.561C181.29 462.832 181.075 463.238 181.142 466.014L181.183 467.963L181.627 468.397L182.058 468.843L183.444 468.83C186.944 468.803 189.435 467.774 191.589 465.458C193.11 463.82 193.944 461.884 194.119 459.568C194.173 458.824 194.267 458.35 194.362 458.35C194.442 458.35 194.698 458.553 194.914 458.783C195.142 459.013 195.654 459.365 196.058 459.555L196.798 459.907H238.529C278.564 459.907 280.314 459.893 281.673 459.65C285.631 458.959 287.973 457.05 288.875 453.814C289.185 452.704 289.306 448.736 289.077 447.071C288.552 443.131 286.412 440.558 282.817 439.502C281.808 439.204 281.512 439.19 277.769 439.19C274.04 439.19 273.731 439.204 272.748 439.502C269.571 440.423 267.606 442.454 266.704 445.717C266.435 446.665 266.408 447.111 266.408 449.996L266.394 453.205H232.067C201.469 453.205 197.646 453.177 196.933 452.988C195.856 452.717 195.062 452.216 194.577 451.553L194.173 450.997V445.812C194.173 440.071 194.133 439.718 193.352 439.326C192.854 439.055 192.262 439.082 189.394 439.515ZM280.098 445.947C281.31 446.38 281.714 447.179 281.781 449.264C281.848 450.997 281.714 451.62 281.175 452.27C280.583 452.974 280.179 453.069 277.796 453.069C275.4 453.069 274.942 452.961 274.35 452.257C273.825 451.62 273.69 450.984 273.758 449.264C273.798 448.019 273.865 447.612 274.108 447.152C274.417 446.556 274.983 446.069 275.589 445.893C276.208 445.703 279.533 445.744 280.098 445.947Z" fill="white"/>
<path d="M155.175 439.597C154.61 439.881 154.098 440.395 152.456 442.332C151.11 443.916 150.423 444.823 150.423 445.04C150.423 445.216 150.571 445.446 150.787 445.581C151.11 445.798 151.608 445.839 154.933 445.893C158.554 445.961 158.729 445.974 159.348 446.285C160.56 446.881 160.977 447.816 160.896 449.752C160.856 450.862 160.802 451.092 160.438 451.661C160.196 452.067 159.792 452.473 159.388 452.731L158.729 453.137L151.648 453.205L144.567 453.272L144.002 453.597C143.221 454.044 139.25 458.77 139.25 459.243C139.25 459.501 139.358 459.636 139.735 459.785C140.152 459.961 141.538 459.988 150.127 459.934C159.833 459.893 160.075 459.88 161.165 459.595C163.992 458.851 165.742 457.605 166.765 455.655C167.654 453.936 167.721 453.529 167.708 449.684C167.708 446.583 167.681 446.123 167.412 445.175C166.24 440.883 163.588 439.258 157.746 439.258C155.996 439.258 155.808 439.285 155.175 439.597Z" fill="white"/>
<path d="M282.077 467.936C281.162 468.397 281.135 468.518 281.135 473.975V478.823L279.95 477.685C278.133 475.952 276.625 475.289 274.525 475.275C270.756 475.262 267.067 477.022 264.738 479.946C263.769 481.138 262.571 483.507 262.167 484.983C261.063 489.073 261.804 493.879 264.052 497.224C265.829 499.891 268.804 501.922 271.819 502.545C275.508 503.317 277.54 502.68 280.421 499.878C280.812 499.498 281.148 499.214 281.188 499.255C281.215 499.282 281.431 499.81 281.673 500.433C281.902 501.042 282.252 501.733 282.44 501.963L282.79 502.369L285.59 502.328L288.404 502.288L288.767 501.909L289.144 501.543L289.185 485.295C289.225 467.07 289.292 468.437 288.229 467.95C287.744 467.733 287.327 467.693 285.106 467.693C282.938 467.693 282.481 467.733 282.077 467.936ZM276.598 482.519C277.715 482.749 278.671 483.264 279.6 484.117C282.831 487.082 282.387 492.268 278.698 494.651C276.773 495.883 273.892 495.924 272.008 494.719C269.275 492.986 268.36 488.937 269.975 485.715C271.267 483.115 273.758 481.91 276.598 482.519Z" fill="white"/>
<path d="M150.935 475.478C149.037 475.803 147.677 476.412 146.587 477.455C146.21 477.821 145.846 478.078 145.806 478.024C145.752 477.983 145.712 477.766 145.712 477.55C145.712 476.981 145.227 476.128 144.769 475.884C144.231 475.6 140.798 475.6 140.125 475.871C139.21 476.263 139.25 475.559 139.25 489.018C139.25 502.261 139.223 501.841 140.004 502.207C140.421 502.396 145.94 502.41 146.438 502.22C146.627 502.152 146.883 501.936 147.017 501.719C147.246 501.381 147.26 500.771 147.327 493.622L147.394 485.904L147.717 485.227C148.148 484.374 149.05 483.453 149.858 483.088C150.773 482.668 152.294 482.682 153.102 483.115C154.206 483.697 154.865 484.658 155.121 486.04C155.215 486.554 155.269 489.479 155.269 494.258V501.692L155.606 502.017L155.929 502.355H159.038C160.91 502.355 162.256 502.301 162.404 502.22C163.01 501.895 163.01 501.854 163.077 493.622L163.144 485.769L163.521 484.997C163.925 484.157 164.517 483.575 165.406 483.101C166.2 482.668 167.883 482.668 168.677 483.088C169.444 483.494 170.05 484.157 170.467 485.024L170.817 485.769L170.885 493.785C170.952 501.245 170.965 501.827 171.194 502.044C171.41 502.261 171.773 502.288 174.667 502.328L177.898 502.369L178.288 501.963L178.692 501.57V493.514C178.692 486.987 178.652 485.241 178.49 484.306C177.723 479.906 175.085 476.71 171.288 475.6C170.629 475.41 169.983 475.356 168.663 475.356C167.129 475.356 166.779 475.41 165.837 475.722C165.244 475.925 164.45 476.263 164.06 476.494C163.265 476.954 161.852 478.227 161.313 478.958L160.95 479.473L160.6 479.012C160.048 478.267 159.038 477.333 158.19 476.764C156.292 475.478 153.667 475.018 150.935 475.478Z" fill="white"/>
<path d="M191.467 475.478C188.815 475.979 186.486 477.198 184.521 479.107C179.823 483.67 179.029 491.144 182.65 496.736C184.885 500.175 188.385 502.288 192.625 502.775C194.335 502.965 195.304 502.816 196.663 502.179C197.498 501.773 198.817 500.825 199.423 500.189C199.531 500.067 199.813 499.81 200.042 499.607L200.46 499.228L200.904 500.419C201.173 501.137 201.496 501.76 201.738 501.976L202.115 502.355H204.821H207.527L207.985 501.895L208.442 501.435V489.073C208.442 479.445 208.402 476.616 208.267 476.358C207.944 475.708 207.352 475.546 205.252 475.546C204.202 475.546 203.192 475.6 202.99 475.681C202.586 475.83 202.21 476.616 201.631 478.457L201.267 479.649L200.661 478.917C199.221 477.211 197.942 476.223 196.381 475.654C195.358 475.289 192.948 475.194 191.467 475.478ZM195.29 482.519C197.754 483.047 199.854 485.173 200.379 487.691C200.567 488.666 200.473 490.251 200.15 491.252C199.598 492.904 198.063 494.516 196.367 495.193C195.708 495.463 195.344 495.504 193.971 495.518C192.436 495.518 192.315 495.491 191.454 495.084C189.179 494.001 187.954 491.929 187.927 489.154C187.913 486.324 189.206 484.008 191.413 482.912C192.625 482.316 193.81 482.194 195.29 482.519Z" fill="white"/>
<path d="M243.079 475.478C240.252 475.993 237.829 477.293 235.823 479.364C233.023 482.248 231.637 486.04 231.933 490.02C232.417 496.845 237.452 502.071 244.223 502.789C246.889 503.073 248.719 502.342 251.062 500.054C251.533 499.58 251.95 499.228 251.977 499.255C251.991 499.282 252.246 499.918 252.542 500.663C252.933 501.665 253.148 502.058 253.404 502.179C253.66 502.315 254.441 502.355 256.46 502.328L259.192 502.288L259.556 501.909L259.933 501.543L259.973 489.154C260.014 475.424 260.054 476.209 259.125 475.763C258.721 475.559 258.304 475.532 256.554 475.573C254.467 475.614 254.454 475.614 254.144 475.979C253.983 476.169 253.606 477.076 253.323 477.97C253.041 478.877 252.771 479.608 252.731 479.608C252.691 479.608 252.529 479.405 252.367 479.161C251.196 477.469 249.123 475.966 247.252 475.478C246.323 475.234 244.412 475.234 243.079 475.478ZM246.848 482.519C248.1 482.776 249.002 483.304 250.039 484.347C253.027 487.366 252.569 492.187 249.056 494.57C247.212 495.829 244.304 495.951 242.446 494.854C238.987 492.81 238.367 487.326 241.248 484.212C242.702 482.627 244.641 482.045 246.848 482.519Z" fill="white"/>
<path d="M211.538 475.79C210.811 476.155 210.731 476.426 210.731 478.972C210.731 481.409 210.825 481.869 211.444 482.208C211.66 482.33 213.127 482.384 217.058 482.397C219.979 482.411 222.402 482.424 222.429 482.438C222.456 482.438 222.052 482.925 221.54 483.494C220.45 484.713 220.288 484.983 220.288 485.579C220.288 485.958 220.517 486.256 222.038 487.786C223.708 489.492 223.802 489.56 224.313 489.546C224.623 489.533 224.96 489.452 225.067 489.357C225.498 488.991 231.394 481.883 231.542 481.558C231.623 481.355 231.677 480.271 231.663 478.863C231.65 476.724 231.623 476.48 231.394 476.209C230.788 475.546 230.883 475.546 221.136 475.546C212.71 475.546 211.969 475.559 211.538 475.79Z" fill="#E40421"/>
<path d="M216.802 489.181C216.277 489.736 211.471 495.328 210.462 496.574C210.152 496.953 210.125 497.102 210.085 498.686C210.017 500.758 210.165 501.367 210.798 501.936L211.283 502.355H221.015C230.681 502.355 230.748 502.355 231.112 502.071C231.785 501.529 231.865 501.205 231.865 498.754V496.506L231.408 496.046L230.95 495.585H225.485C222.483 495.585 220.019 495.545 220.019 495.504C220.019 495.463 220.356 495.03 220.773 494.543C221.81 493.311 221.944 493.067 221.85 492.688C221.81 492.498 221.083 491.659 220.248 490.819C218.485 489.032 217.919 488.544 217.637 488.544C217.515 488.544 217.139 488.829 216.802 489.181Z" fill="white"/>
</svg>
