<svg width="146" height="72" viewBox="0 0 146 72" fill="none" xmlns="http://www.w3.org/2000/svg">
<path d="M48.4555 0.369607C46.3716 0.671061 45.9522 0.762807 45.7031 1.01183C45.4279 1.30018 45.4148 1.41814 45.3755 4.01326C45.3099 8.20739 45.2051 8.12875 49.7269 7.59138C50.9589 7.4341 52.1516 7.22439 52.3744 7.11954C52.5972 7.00158 52.9118 6.68702 53.0691 6.41178C53.3181 5.95304 53.3443 5.73023 53.3443 3.47588C53.3443 -0.377473 53.3967 -0.338152 48.4555 0.369607Z" fill="white"/>
<path d="M36.3582 1.54928C33.4223 1.92937 33.0029 2.06044 32.767 2.68956C32.6883 2.89927 32.6359 7.99776 32.6359 15.7962C32.6359 29.4665 32.6228 29.2568 33.265 29.5975C33.4354 29.6893 34.6281 29.7417 36.5286 29.7417C39.2547 29.7417 39.5562 29.7155 39.9363 29.4796C40.2115 29.3092 40.395 29.0733 40.4868 28.7325C40.6965 27.9854 40.6703 2.83373 40.4606 2.21772C40.3164 1.7852 39.5824 1.15608 39.2679 1.18229C39.1892 1.1954 37.8785 1.35268 36.3582 1.54928Z" fill="white"/>
<path d="M48.8225 10.0685C47.5249 10.2651 46.3453 10.4879 46.1881 10.5666C45.5196 10.9466 45.5458 10.501 45.4803 20.6849C45.4148 29.6498 45.4017 30.2265 45.1657 30.6591C44.6284 31.6683 43.8813 32.1663 42.5444 32.376C40.9323 32.6382 40.7226 33.0314 40.7881 35.7182L40.8274 37.6056L41.2599 38.025L41.6794 38.4575L43.0293 38.4444C46.4371 38.4182 48.8618 37.4221 50.9589 35.1809C52.4399 33.5949 53.2525 31.7207 53.4229 29.4795C53.4754 28.7586 53.5671 28.2999 53.6588 28.2999C53.7375 28.2999 53.9865 28.4965 54.1962 28.7193C54.419 28.9421 54.9171 29.2829 55.3103 29.4664L56.0312 29.8071H96.6618C135.641 29.8071 137.345 29.794 138.669 29.5581C142.522 28.8897 144.803 27.0416 145.681 23.9091C145.982 22.8344 146.1 18.9941 145.877 17.382C145.366 13.568 143.282 11.0777 139.783 10.0554C138.8 9.76705 138.511 9.75394 134.868 9.75394C131.237 9.75394 130.936 9.76705 129.979 10.0554C126.886 10.9466 124.972 12.9126 124.094 16.0713C123.832 16.9888 123.806 17.4213 123.806 20.2131L123.793 23.3193H90.3706C60.5792 23.3193 56.8569 23.2931 56.1622 23.1096C55.1137 22.8475 54.3404 22.3625 53.8686 21.7203L53.4754 21.1829V16.1631C53.4754 10.6059 53.436 10.2651 52.6758 9.88501C52.1909 9.62287 51.6142 9.64909 48.8225 10.0685ZM137.135 16.2942C138.315 16.7136 138.708 17.4869 138.773 19.5053C138.839 21.1829 138.708 21.7859 138.184 22.415C137.607 23.0965 137.214 23.1883 134.894 23.1883C132.561 23.1883 132.115 23.0834 131.539 22.4019C131.027 21.7859 130.896 21.1698 130.962 19.5053C131.001 18.2995 131.067 17.9063 131.303 17.4607C131.604 16.884 132.155 16.4121 132.744 16.2417C133.347 16.0582 136.585 16.0976 137.135 16.2942Z" fill="white"/>
<path d="M15.5054 10.147C14.9549 10.4223 14.4569 10.9203 12.8579 12.7946C11.5472 14.3281 10.8788 15.2062 10.8788 15.4159C10.8788 15.5863 11.0229 15.8091 11.2326 15.9402C11.5472 16.1499 12.0322 16.1892 15.2695 16.2416C18.7952 16.3072 18.9656 16.3203 19.5685 16.6217C20.7481 17.1984 21.1544 18.1028 21.0757 19.977C21.0364 21.0518 20.984 21.2746 20.6301 21.8251C20.3942 22.2183 20.001 22.6115 19.6078 22.8605L18.9656 23.2537L12.0715 23.3192L5.17737 23.3848L4.62689 23.6993C3.86671 24.1318 0.000244141 28.7061 0.000244141 29.1648C0.000244141 29.4138 0.105097 29.5449 0.472084 29.6891C0.87839 29.8595 2.22838 29.8857 10.5904 29.8332C20.0403 29.7939 20.2762 29.7808 21.3379 29.5056C24.0903 28.7847 25.7941 27.5789 26.7902 25.6915C27.6553 24.027 27.7208 23.6338 27.7077 19.9115C27.7077 16.9101 27.6815 16.4644 27.4194 15.547C26.2791 11.3922 23.6971 9.81937 18.0088 9.81937C16.3049 9.81937 16.1214 9.84558 15.5054 10.147Z" fill="white"/>
<path d="M139.062 37.5795C138.171 38.0251 138.144 38.1431 138.144 43.425V48.1172L136.991 47.0163C135.222 45.3386 133.754 44.6964 131.709 44.6833C128.039 44.6702 124.448 46.374 122.181 49.2051C121.237 50.3585 120.07 52.6521 119.677 54.0808C118.602 58.039 119.323 62.6918 121.512 65.9292C123.242 68.5112 126.139 70.4772 129.075 71.0801C132.666 71.8272 134.645 71.2112 137.45 68.4981C137.83 68.1311 138.158 67.8558 138.197 67.8952C138.223 67.9214 138.433 68.4325 138.669 69.0354C138.892 69.6252 139.232 70.2937 139.416 70.5165L139.757 70.9097L142.483 70.8704L145.222 70.8311L145.576 70.4641L145.943 70.1102L145.982 54.3822C146.022 36.7406 146.087 38.0644 145.052 37.5926C144.58 37.3829 144.174 37.3435 142.011 37.3435C139.901 37.3435 139.455 37.3829 139.062 37.5795ZM133.728 51.6953C134.815 51.9182 135.746 52.4162 136.65 53.2419C139.796 56.1123 139.363 61.1321 135.772 63.4389C133.898 64.6316 131.093 64.6709 129.258 63.5044C126.597 61.8268 125.706 57.9079 127.279 54.7885C128.537 52.272 130.962 51.1055 133.728 51.6953Z" fill="white"/>
<path d="M11.3768 44.8798C9.5288 45.1944 8.20503 45.7842 7.14339 46.7934C6.7764 47.1473 6.42252 47.3963 6.3832 47.3439C6.33077 47.3046 6.29145 47.0949 6.29145 46.8852C6.29145 46.3347 5.81961 45.509 5.37399 45.273C4.84972 44.9978 1.50752 44.9978 0.852191 45.2599C-0.0390615 45.64 0.000258495 44.9585 0.000258495 57.9865C0.000258495 70.8048 -0.0259548 70.3985 0.734231 70.7524C1.14054 70.9359 6.51427 70.949 6.99921 70.7655C7.18271 70.7 7.43173 70.4903 7.5628 70.2805C7.78561 69.9529 7.79872 69.3631 7.86425 62.4428L7.92979 54.972L8.24434 54.3166C8.66376 53.4909 9.5419 52.5997 10.3283 52.2458C11.2196 51.8395 12.7006 51.8526 13.487 52.272C14.5618 52.8356 15.204 53.7662 15.453 55.103C15.5448 55.6011 15.5972 58.4321 15.5972 63.0588V70.2543L15.9248 70.5689L16.2394 70.8966H19.267C21.0889 70.8966 22.3995 70.8441 22.5437 70.7655C23.1335 70.4509 23.1335 70.4116 23.199 62.4428L23.2646 54.8409L23.6316 54.0938C24.0248 53.2812 24.6015 52.7176 25.4665 52.2589C26.2398 51.8395 27.8781 51.8395 28.6514 52.2458C29.3985 52.639 29.9883 53.2812 30.3946 54.12L30.7354 54.8409L30.8009 62.6C30.8664 69.8218 30.8795 70.3854 31.1024 70.5951C31.3121 70.8048 31.6659 70.831 34.4839 70.8703L37.6295 70.9097L38.0096 70.5165L38.4028 70.1364V62.3379C38.4028 56.0205 38.3634 54.3297 38.2062 53.4254C37.4591 49.1657 34.8902 46.0726 31.1941 44.9978C30.5519 44.8143 29.9228 44.7619 28.6383 44.7619C27.1441 44.7619 26.8034 44.8143 25.8859 45.1158C25.3092 45.3124 24.5359 45.64 24.1558 45.8628C23.3825 46.3085 22.0063 47.5405 21.4821 48.2483L21.1282 48.7463L20.7874 48.3007C20.25 47.5798 19.267 46.6755 18.4413 46.125C16.5933 44.8798 14.0375 44.4342 11.3768 44.8798Z" fill="white"/>
<path d="M50.841 44.8798C48.259 45.3647 45.9915 46.5443 44.078 48.3924C39.5037 52.8093 38.7304 60.0442 42.2561 65.4572C44.4318 68.7863 47.8396 70.831 51.9682 71.3028C53.6327 71.4863 54.5764 71.3421 55.9002 70.7261C56.7128 70.3329 57.9972 69.4154 58.587 68.7994C58.6919 68.6815 58.9671 68.4324 59.1899 68.2358L59.5962 67.8688L60.0288 69.0222C60.2909 69.7169 60.6055 70.3198 60.8414 70.5295L61.2084 70.8965H63.8428H66.4772L66.9229 70.4509L67.3685 70.0052V58.0389C67.3685 48.72 67.3292 45.9807 67.1981 45.7317C66.8835 45.1026 66.3068 44.9453 64.2622 44.9453C63.2399 44.9453 62.2569 44.9977 62.0603 45.0764C61.6671 45.2205 61.3001 45.9807 60.7365 47.7632L60.3826 48.9166L59.7928 48.2089C58.3904 46.5574 57.1453 45.6006 55.6249 45.0502C54.6288 44.6963 52.2827 44.6045 50.841 44.8798ZM54.5633 51.6952C56.9618 52.2064 59.0064 54.2641 59.5176 56.702C59.7011 57.6457 59.6093 59.1791 59.2948 60.149C58.7574 61.748 57.2633 63.3077 55.6118 63.9631C54.9696 64.2252 54.6157 64.2645 53.2788 64.2776C51.7847 64.2776 51.6667 64.2514 50.8279 63.8582C48.6129 62.8097 47.4202 60.8044 47.3939 58.1175C47.3808 55.3782 48.6391 53.137 50.7886 52.0753C51.9682 51.4986 53.1215 51.3807 54.5633 51.6952Z" fill="white"/>
<path d="M101.092 44.8798C98.3396 45.3778 95.9804 46.636 94.0275 48.6414C91.3013 51.4331 89.9513 55.1029 90.2397 58.9563C90.7115 65.5621 95.6134 70.6212 102.206 71.3159C104.801 71.5911 106.584 70.8834 108.864 68.6683C109.323 68.2096 109.729 67.8688 109.755 67.895C109.769 67.9213 110.018 68.5373 110.306 69.2581C110.686 70.228 110.896 70.6081 111.145 70.7261C111.394 70.8571 112.154 70.8965 114.12 70.8703L116.781 70.8309L117.135 70.4639L117.502 70.1101L117.541 58.1175C117.58 44.8273 117.619 45.5875 116.715 45.155C116.322 44.9584 115.916 44.9322 114.212 44.9715C112.18 45.0108 112.167 45.0108 111.866 45.3647C111.708 45.5482 111.341 46.4263 111.066 47.2914C110.791 48.1695 110.529 48.8773 110.489 48.8773C110.45 48.8773 110.293 48.6807 110.136 48.4448C108.995 46.8064 106.977 45.3516 105.155 44.8798C104.251 44.6438 102.39 44.6438 101.092 44.8798ZM104.762 51.6952C105.981 51.9442 106.859 52.4554 107.868 53.4646C110.778 56.3874 110.332 61.0534 106.911 63.3601C105.116 64.5791 102.285 64.697 100.476 63.6354C97.1075 61.6563 96.5046 56.3481 99.3095 53.3335C100.725 51.8001 102.612 51.2365 104.762 51.6952Z" fill="white"/>
<path d="M70.383 45.1812C69.6752 45.5351 69.5966 45.7972 69.5966 48.2613C69.5966 50.6205 69.6883 51.0661 70.2912 51.3938C70.5009 51.5117 71.9295 51.5642 75.7567 51.5773C78.6008 51.5904 80.96 51.6035 80.9862 51.6166C81.0125 51.6166 80.6193 52.0884 80.1212 52.6389C79.0596 53.8185 78.9023 54.0806 78.9023 54.6573C78.9023 55.0243 79.1251 55.3127 80.6061 56.7937C82.2314 58.4452 82.3231 58.5107 82.8212 58.4976C83.1226 58.4845 83.4503 58.4058 83.5551 58.3141C83.9746 57.9602 89.7153 51.0792 89.8594 50.7647C89.9381 50.5681 89.9905 49.5195 89.9774 48.1564C89.9643 46.0856 89.9381 45.8497 89.7153 45.5875C89.1255 44.9453 89.2172 44.9453 79.728 44.9453C71.5232 44.9453 70.8024 44.9584 70.383 45.1812Z" fill="#E40421"/>
<path d="M75.5077 58.1437C74.9965 58.6811 70.3175 64.0941 69.3345 65.2999C69.033 65.6669 69.0068 65.8111 68.9675 67.3446C68.902 69.3499 69.0461 69.9397 69.6621 70.4902L70.134 70.8965H79.6101C89.0207 70.8965 89.0862 70.8965 89.4401 70.6212C90.0954 70.097 90.1741 69.7824 90.1741 67.4101V65.2344L89.7284 64.7888L89.2828 64.3432H83.9615C81.0387 64.3432 78.6402 64.3038 78.6402 64.2645C78.6402 64.2252 78.9679 63.8058 79.3742 63.3339C80.3834 62.1412 80.5145 61.9053 80.4227 61.5383C80.3834 61.3548 79.6756 60.5422 78.863 59.7296C77.146 57.9995 76.5956 57.5277 76.3203 57.5277C76.2024 57.5277 75.8354 57.8029 75.5077 58.1437Z" fill="white"/>
</svg>
