<svg width="33" height="36" viewBox="0 0 33 36" fill="none" xmlns="http://www.w3.org/2000/svg">
<path d="M6.93 23.355V31H5.676V27.656H2.079V31H0.825V23.355H2.079V26.633H5.676V23.355H6.93ZM11.2099 31.099C10.6379 31.099 10.1209 30.9707 9.65886 30.714C9.19686 30.45 8.83386 30.0833 8.56986 29.614C8.30586 29.1373 8.17386 28.5873 8.17386 27.964C8.17386 27.348 8.30953 26.8017 8.58086 26.325C8.85219 25.8483 9.22253 25.4817 9.69186 25.225C10.1612 24.9683 10.6855 24.84 11.2649 24.84C11.8442 24.84 12.3685 24.9683 12.8379 25.225C13.3072 25.4817 13.6775 25.8483 13.9489 26.325C14.2202 26.8017 14.3559 27.348 14.3559 27.964C14.3559 28.58 14.2165 29.1263 13.9379 29.603C13.6592 30.0797 13.2779 30.45 12.7939 30.714C12.3172 30.9707 11.7892 31.099 11.2099 31.099ZM11.2099 30.01C11.5325 30.01 11.8332 29.933 12.1119 29.779C12.3979 29.625 12.6289 29.394 12.8049 29.086C12.9809 28.778 13.0689 28.404 13.0689 27.964C13.0689 27.524 12.9845 27.1537 12.8159 26.853C12.6472 26.545 12.4235 26.314 12.1449 26.16C11.8662 26.006 11.5655 25.929 11.2429 25.929C10.9202 25.929 10.6195 26.006 10.3409 26.16C10.0695 26.314 9.85319 26.545 9.69186 26.853C9.53053 27.1537 9.44986 27.524 9.44986 27.964C9.44986 28.6167 9.61486 29.1227 9.94486 29.482C10.2822 29.834 10.7039 30.01 11.2099 30.01ZM22.9325 24.84C23.4092 24.84 23.8345 24.939 24.2085 25.137C24.5898 25.335 24.8868 25.6283 25.0995 26.017C25.3195 26.4057 25.4295 26.875 25.4295 27.425V31H24.1865V27.612C24.1865 27.0693 24.0508 26.655 23.7795 26.369C23.5082 26.0757 23.1378 25.929 22.6685 25.929C22.1992 25.929 21.8252 26.0757 21.5465 26.369C21.2752 26.655 21.1395 27.0693 21.1395 27.612V31H19.8965V27.612C19.8965 27.0693 19.7608 26.655 19.4895 26.369C19.2182 26.0757 18.8478 25.929 18.3785 25.929C17.9092 25.929 17.5352 26.0757 17.2565 26.369C16.9852 26.655 16.8495 27.0693 16.8495 27.612V31H15.5955V24.939H16.8495V25.632C17.0548 25.3827 17.3152 25.1883 17.6305 25.049C17.9458 24.9097 18.2832 24.84 18.6425 24.84C19.1265 24.84 19.5592 24.9427 19.9405 25.148C20.3218 25.3533 20.6152 25.6503 20.8205 26.039C21.0038 25.6723 21.2898 25.3827 21.6785 25.17C22.0672 24.95 22.4852 24.84 22.9325 24.84ZM32.5802 27.821C32.5802 28.0483 32.5655 28.2537 32.5362 28.437H27.9052C27.9419 28.921 28.1215 29.3097 28.4442 29.603C28.7669 29.8963 29.1629 30.043 29.6322 30.043C30.3069 30.043 30.7835 29.7607 31.0622 29.196H32.4152C32.2319 29.7533 31.8982 30.2117 31.4142 30.571C30.9375 30.923 30.3435 31.099 29.6322 31.099C29.0529 31.099 28.5322 30.9707 28.0702 30.714C27.6155 30.45 27.2562 30.0833 26.9922 29.614C26.7355 29.1373 26.6072 28.5873 26.6072 27.964C26.6072 27.3407 26.7319 26.7943 26.9812 26.325C27.2379 25.8483 27.5935 25.4817 28.0482 25.225C28.5102 24.9683 29.0382 24.84 29.6322 24.84C30.2042 24.84 30.7139 24.9647 31.1612 25.214C31.6085 25.4633 31.9569 25.8153 32.2062 26.27C32.4555 26.7173 32.5802 27.2343 32.5802 27.821ZM31.2712 27.425C31.2639 26.963 31.0989 26.5927 30.7762 26.314C30.4535 26.0353 30.0539 25.896 29.5772 25.896C29.1445 25.896 28.7742 26.0353 28.4662 26.314C28.1582 26.5853 27.9749 26.9557 27.9162 27.425H31.2712Z" fill="#808080"/>
<path d="M6.77163 0.226285C6.07716 0.565713 6 0.817142 6 3.18057C6 5.44343 6.09002 5.87085 6.6816 6.18514C6.88737 6.29828 8.28916 6.34857 12.0444 6.36114C14.8351 6.37371 17.15 6.38628 17.1757 6.39885C17.2015 6.39885 16.8157 6.85142 16.327 7.37942C15.2853 8.51085 15.1309 8.76228 15.1309 9.31542C15.1309 9.66742 15.3496 9.94399 16.8028 11.3646C18.3975 12.9486 18.4875 13.0114 18.9762 12.9989C19.272 12.9863 19.5935 12.9109 19.6964 12.8229C20.1079 12.4834 25.7408 5.88343 25.8823 5.58171C25.9594 5.39314 26.0109 4.38743 25.998 3.08C25.9852 1.09371 25.9594 0.867427 25.7408 0.615998C25.1621 -9.53674e-07 25.2521 0 15.9411 0C7.89049 0 7.18316 0.0125704 6.77163 0.226285Z" fill="#808080"/>
</svg>
