<svg width="127" height="86" viewBox="0 0 127 86" fill="none" xmlns="http://www.w3.org/2000/svg">
<path d="M101.118 77.9173V67.3564C101.118 62.9382 104.7 59.3564 109.118 59.3564H119.679" stroke="#D5DADD" stroke-width="9"/>
<path d="M26.2119 77.9173V67.3564C26.2119 62.9382 22.6302 59.3564 18.2119 59.3564H7.6511" stroke="#D5DADD" stroke-width="9"/>
<path d="M101.118 7.65159V18.2124C101.118 22.6307 104.7 26.2124 109.118 26.2124H119.679" stroke="#D5DADD" stroke-width="9"/>
<path d="M26.2119 7.65159V18.2124C26.2119 22.6307 22.6302 26.2124 18.2119 26.2124H7.6511" stroke="#D5DADD" stroke-width="9"/>
<path d="M5 72.569V13C5 8.58172 8.58172 5 13 5H113.668C118.086 5 121.668 8.58171 121.668 13V72.569C121.668 76.9873 118.086 80.569 113.668 80.569H13C8.58172 80.569 5 76.9873 5 72.569Z" stroke="#D5DADD" stroke-width="9"/>
<circle cx="62.6707" cy="42.7845" r="18.701" stroke="#D5DADD" stroke-width="9"/>
</svg>
